<!-- Generated by IcoMoon.io -->
<svg version="1.1" xmlns="http://www.w3.org/2000/svg" width="512" height="512" viewBox="0 0 512 512">
<title></title>
<g id="icomoon-ignore">
</g>
<path d="M509.085 145.945l-143.029-143.029c-4.667-4.667-10.822-3.617-13.678 2.333l-19.177 39.952 133.599 133.599 39.952-19.177c5.95-2.856 7-9.011 2.333-13.678z"></path>
<path d="M307.692 67.692l-131.692 10.975c-8.75 1.083-16.040 2.949-18.545 14.376-0.003 0.012-0.006 0.021-0.009 0.033-35.711 171.535-157.446 338.924-157.446 338.924l28.687 28.687 135.993-135.995c-2.998-6.265-4.68-13.282-4.68-20.692 0-26.51 21.49-48 48-48s48 21.49 48 48-21.49 48-48 48c-7.41 0-14.426-1.682-20.692-4.68l-135.994 135.993 28.686 28.687c0 0 167.389-121.735 338.924-157.446 0.012-0.003 0.021-0.006 0.033-0.009 11.427-2.505 13.293-9.795 14.376-18.545l10.975-131.692-136.616-136.616z"></path>
</svg>
